<svg width="16" height="16" viewBox="0 0 16 16" fill="none" xmlns="http://www.w3.org/2000/svg">
<path d="M8 0C3.58883 0 0 3.58883 0 8C0 12.4112 3.58883 16 8 16C12.4112 16 16 12.4112 16 8C16 3.58883 12.4112 0 8 0ZM8 1.2C11.7626 1.2 14.8 4.23736 14.8 8C14.8 11.7626 11.7626 14.8 8 14.8C4.23735 14.8 1.2 11.7626 1.2 8C1.2 4.23736 4.23735 1.2 8 1.2ZM8 4C7.78783 4 7.58434 4.08429 7.43431 4.23431C7.28429 4.38434 7.2 4.58783 7.2 4.8C7.2 5.01217 7.28429 5.21566 7.43431 5.36569C7.58434 5.51571 7.78783 5.6 8 5.6C8.21217 5.6 8.41566 5.51571 8.56569 5.36569C8.71571 5.21566 8.8 5.01217 8.8 4.8C8.8 4.58783 8.71571 4.38434 8.56569 4.23431C8.41566 4.08429 8.21217 4 8 4ZM7.99062 6.79141C7.83163 6.79389 7.68012 6.85938 7.56938 6.97349C7.45864 7.0876 7.39772 7.241 7.4 7.4V11.8C7.39888 11.8795 7.41356 11.9584 7.44321 12.0322C7.47286 12.106 7.51688 12.1732 7.5727 12.2298C7.62853 12.2864 7.69505 12.3314 7.76841 12.3621C7.84176 12.3927 7.92048 12.4085 8 12.4085C8.07952 12.4085 8.15824 12.3927 8.23159 12.3621C8.30495 12.3314 8.37147 12.2864 8.4273 12.2298C8.48312 12.1732 8.52714 12.106 8.55679 12.0322C8.58644 11.9584 8.60112 11.8795 8.6 11.8V7.4C8.60115 7.31969 8.58617 7.23997 8.55595 7.16556C8.52572 7.09115 8.48086 7.02357 8.42404 6.96681C8.36721 6.91006 8.29957 6.86529 8.22512 6.83516C8.15067 6.80503 8.07093 6.79015 7.99062 6.79141Z" fill="white"/>
</svg>
