<svg width="20" height="20" viewBox="0 0 20 20" fill="none" xmlns="http://www.w3.org/2000/svg">
<path d="M5.99844 0.399902C2.91124 0.399902 0.4 2.91347 0.4 6.00146V14.0015C0.4 17.0887 2.91356 19.5999 6.00156 19.5999H14.0016C17.0888 19.5999 19.6 17.0863 19.6 13.9983V5.99834C19.6 2.91114 17.0864 0.399902 13.9984 0.399902H5.99844ZM15.6 3.5999C16.0416 3.5999 16.4 3.9583 16.4 4.3999C16.4 4.8415 16.0416 5.1999 15.6 5.1999C15.1584 5.1999 14.8 4.8415 14.8 4.3999C14.8 3.9583 15.1584 3.5999 15.6 3.5999ZM10 5.1999C12.6472 5.1999 14.8 7.3527 14.8 9.9999C14.8 12.6471 12.6472 14.7999 10 14.7999C7.3528 14.7999 5.2 12.6471 5.2 9.9999C5.2 7.3527 7.3528 5.1999 10 5.1999ZM10 6.7999C9.15131 6.7999 8.33737 7.13704 7.73726 7.73716C7.13714 8.33728 6.8 9.15121 6.8 9.9999C6.8 10.8486 7.13714 11.6625 7.73726 12.2626C8.33737 12.8628 9.15131 13.1999 10 13.1999C10.8487 13.1999 11.6626 12.8628 12.2627 12.2626C12.8629 11.6625 13.2 10.8486 13.2 9.9999C13.2 9.15121 12.8629 8.33728 12.2627 7.73716C11.6626 7.13704 10.8487 6.7999 10 6.7999Z" fill="white"/>
</svg>
