<svg width="1440" height="272" viewBox="0 0 1440 272" fill="none" xmlns="http://www.w3.org/2000/svg">
<path opacity="0.4" d="M0 272V108.8H38.9V163.2H77.8V190.4H116.8V81.6H155.7V27.2H194.6V163.2H233.5V108.8H272.4V163.2H311.4V54.4H350.3V217.6H389.2V54.4H428.1V81.6H467V190.4H505.9V54.4H544.9V27.2H583.8V54.4H622.7V27.2H661.6V163.2H700.5V190.4H739.5V217.6H778.4V27.2H817.3V54.4H856.2V27.2H895.1H934.1V54.4H973V136H1011.9V244.8H1050.8V136H1089.7V244.8H1128.6V81.6H1167.6V163.2H1206.5V27.2H1245.4V163.2H1284.3V136H1323.2V163.2H1362.2V27.2H1401.1V0H1440V272H1401.1H1362.2H1323.2H1284.3H1245.4H1206.5H1167.6H1128.6H1089.7H1050.8H1011.9H973H934.1H895.1H856.2H817.3H778.4H739.5H700.5H661.6H622.7H583.8H544.9H505.9H467H428.1H389.2H350.3H311.4H272.4H233.5H194.6H155.7H116.8H77.8H38.9H0Z" fill="url(#paint0_linear_3_135)"/>
<defs>
<linearGradient id="paint0_linear_3_135" x1="720" y1="0" x2="720" y2="272" gradientUnits="userSpaceOnUse">
<stop stop-color="#68EBFF"/>
<stop offset="1" stop-color="#1E6AFF"/>
</linearGradient>
</defs>
</svg>
