<svg width="1440" height="150" viewBox="0 0 1440 150" fill="none" xmlns="http://www.w3.org/2000/svg">
<g clip-path="url(#clip0_4_266)">
<path d="M1440 45L1425.9 50C1411.8 55 1384 65 1355 82.5C1327.1 100 1299 125 1271 125C1242.4 125 1214 100 1186 100C1157.6 100 1129 125 1101 117.5C1072.9 110 1045 70 1016 65C988.2 60 960 90 932 87.5C903.5 85 875 50 847 55C818.8 60 791 105 762 122.5C734.1 140 706 130 678 122.5C649.4 115 621 110 593 97.5C564.7 85 536 65 508 57.5C480 50 452 55 424 70C395.3 85 367 110 339 105C310.6 100 282 65 254 65C225.9 65 198 100 169 105C141.2 110 113 85 85 87.5C56.5 90 28 120 0 125C-28.2 130 -56 110 -85 102.5C-112.9 95 -141 100 -169 100C-197.6 100 -226 95 -254 90C-282.4 85 -311 80 -339 72.5C-367.1 65 -395 55 -424 50C-451.8 45 -480 45 -508 40C-536.5 35 -565 25 -579 20L-592.9 15V-1.52588e-05H-578.8C-564.7 -1.52588e-05 -536 -1.52588e-05 -508 -1.52588e-05C-480 -1.52588e-05 -452 -1.52588e-05 -424 -1.52588e-05C-395.3 -1.52588e-05 -367 -1.52588e-05 -339 -1.52588e-05C-310.6 -1.52588e-05 -282 -1.52588e-05 -254 -1.52588e-05C-225.9 -1.52588e-05 -198 -1.52588e-05 -169 -1.52588e-05C-141.2 -1.52588e-05 -113 -1.52588e-05 -85 -1.52588e-05C-56.5 -1.52588e-05 -28 -1.52588e-05 0 -1.52588e-05C28.2 -1.52588e-05 56 -1.52588e-05 85 -1.52588e-05C112.9 -1.52588e-05 141 -1.52588e-05 169 -1.52588e-05C197.6 -1.52588e-05 226 -1.52588e-05 254 -1.52588e-05C282.4 -1.52588e-05 311 -1.52588e-05 339 -1.52588e-05C367.1 -1.52588e-05 395 -1.52588e-05 424 -1.52588e-05C451.8 -1.52588e-05 480 -1.52588e-05 508 -1.52588e-05C536.5 -1.52588e-05 565 -1.52588e-05 593 -1.52588e-05C621.2 -1.52588e-05 649 -1.52588e-05 678 -1.52588e-05C705.9 -1.52588e-05 734 -1.52588e-05 762 -1.52588e-05C790.6 -1.52588e-05 819 -1.52588e-05 847 -1.52588e-05C875.3 -1.52588e-05 904 -1.52588e-05 932 -1.52588e-05C960 -1.52588e-05 988 -1.52588e-05 1016 -1.52588e-05C1044.7 -1.52588e-05 1073 -1.52588e-05 1101 -1.52588e-05C1129.4 -1.52588e-05 1158 -1.52588e-05 1186 -1.52588e-05C1214.1 -1.52588e-05 1242 -1.52588e-05 1271 -1.52588e-05C1298.8 -1.52588e-05 1327 -1.52588e-05 1355 -1.52588e-05C1383.5 -1.52588e-05 1412 -1.52588e-05 1426 -1.52588e-05H1440V45Z" fill="url(#paint0_linear_4_266)"/>
<path opacity="0.9" d="M1440 120H1425.9C1411.8 120 1384 120 1355 122.5C1327.1 125 1299 130 1271 132.5C1242.4 135 1214 135 1186 132.5C1157.6 130 1129 125 1101 127.5C1072.9 130 1045 140 1016 122.5C988.2 105 960 60 932 52.5C903.5 45 875 75 847 80C818.8 85 791 65 762 50C734.1 35 706 25 678 32.5C649.4 40 621 65 593 72.5C564.7 80 536 70 508 80C480 90 452 120 424 130C395.3 140 367 130 339 115C310.6 100 282 80 254 77.5C225.9 75 198 90 169 87.5C141.2 85 113 65 85 67.5C56.5 70 28 95 0 95C-28.2 95 -56 70 -85 60C-112.9 50 -141 55 -169 50C-197.6 45 -226 30 -254 32.5C-282.4 35 -311 55 -339 72.5C-367.1 90 -395 105 -424 105C-451.8 105 -480 90 -508 82.5C-536.5 75 -565 75 -579 75H-592.9V0H-578.8C-564.7 0 -536 0 -508 0C-480 0 -452 0 -424 0C-395.3 0 -367 0 -339 0C-310.6 0 -282 0 -254 0C-225.9 0 -198 0 -169 0C-141.2 0 -113 0 -85 0C-56.5 0 -28 0 0 0C28.2 0 56 0 85 0C112.9 0 141 0 169 0C197.6 0 226 0 254 0C282.4 0 311 0 339 0C367.1 0 395 0 424 0C451.8 0 480 0 508 0C536.5 0 565 0 593 0C621.2 0 649 0 678 0C705.9 0 734 0 762 0C790.6 0 819 0 847 0C875.3 0 904 0 932 0C960 0 988 0 1016 0C1044.7 0 1073 0 1101 0C1129.4 0 1158 0 1186 0C1214.1 0 1242 0 1271 0C1298.8 0 1327 0 1355 0C1383.5 0 1412 0 1426 0H1440V120Z" fill="url(#paint1_linear_4_266)"/>
<path opacity="0.8" d="M1440 75L1425.9 82.5C1411.8 90 1384 105 1355 115C1327.1 125 1299 130 1271 117.5C1242.4 105 1214 75 1186 55C1157.6 35 1129 25 1101 37.5C1072.9 50 1045 85 1016 107.5C988.2 130 960 140 932 140C903.5 140 875 130 847 112.5C818.8 95 791 70 762 52.5C734.1 35 706 25 678 37.5C649.4 50 621 85 593 100C564.7 115 536 110 508 110C480 110 452 115 424 102.5C395.3 90 367 60 339 52.5C310.6 45 282 60 254 62.5C225.9 65 198 55 169 50C141.2 45 113 45 85 42.5C56.5 40 28 35 0 45C-28.2 55 -56 80 -85 97.5C-112.9 115 -141 125 -169 132.5C-197.6 140 -226 145 -254 132.5C-282.4 120 -311 90 -339 85C-367.1 80 -395 100 -424 102.5C-451.8 105 -480 90 -508 82.5C-536.5 75 -565 75 -579 75L-592.9 75V1.52588e-05H-578.8C-564.7 1.52588e-05 -536 1.52588e-05 -508 1.52588e-05C-480 1.52588e-05 -452 1.52588e-05 -424 1.52588e-05C-395.3 1.52588e-05 -367 1.52588e-05 -339 1.52588e-05C-310.6 1.52588e-05 -282 1.52588e-05 -254 1.52588e-05C-225.9 1.52588e-05 -198 1.52588e-05 -169 1.52588e-05C-141.2 1.52588e-05 -113 1.52588e-05 -85 1.52588e-05C-56.5 1.52588e-05 -28 1.52588e-05 0 1.52588e-05C28.2 1.52588e-05 56 1.52588e-05 85 1.52588e-05C112.9 1.52588e-05 141 1.52588e-05 169 1.52588e-05C197.6 1.52588e-05 226 1.52588e-05 254 1.52588e-05C282.4 1.52588e-05 311 1.52588e-05 339 1.52588e-05C367.1 1.52588e-05 395 1.52588e-05 424 1.52588e-05C451.8 1.52588e-05 480 1.52588e-05 508 1.52588e-05C536.5 1.52588e-05 565 1.52588e-05 593 1.52588e-05C621.2 1.52588e-05 649 1.52588e-05 678 1.52588e-05C705.9 1.52588e-05 734 1.52588e-05 762 1.52588e-05C790.6 1.52588e-05 819 1.52588e-05 847 1.52588e-05C875.3 1.52588e-05 904 1.52588e-05 932 1.52588e-05C960 1.52588e-05 988 1.52588e-05 1016 1.52588e-05C1044.7 1.52588e-05 1073 1.52588e-05 1101 1.52588e-05C1129.4 1.52588e-05 1158 1.52588e-05 1186 1.52588e-05C1214.1 1.52588e-05 1242 1.52588e-05 1271 1.52588e-05C1298.8 1.52588e-05 1327 1.52588e-05 1355 1.52588e-05C1383.5 1.52588e-05 1412 1.52588e-05 1426 1.52588e-05H1440V75Z" fill="url(#paint2_linear_4_266)"/>
</g>
<defs>
<linearGradient id="paint0_linear_4_266" x1="1440" y1="-1.52588e-05" x2="1440" y2="132.224" gradientUnits="userSpaceOnUse">
<stop stop-color="#2563FF"/>
<stop offset="1" stop-color="#46F4FF"/>
</linearGradient>
<linearGradient id="paint1_linear_4_266" x1="1440" y1="0" x2="1440" y2="134.375" gradientUnits="userSpaceOnUse">
<stop stop-color="#2563FF"/>
<stop offset="1" stop-color="#46F4FF"/>
</linearGradient>
<linearGradient id="paint2_linear_4_266" x1="1440" y1="1.52588e-05" x2="1440" y2="140.114" gradientUnits="userSpaceOnUse">
<stop stop-color="#2563FF"/>
<stop offset="1" stop-color="#46F4FF"/>
</linearGradient>
<clipPath id="clip0_4_266">
<rect width="1440" height="150" fill="white" transform="matrix(-1 0 0 -1 1440 150)"/>
</clipPath>
</defs>
</svg>
