<svg width="1440" height="174" viewBox="0 0 1440 174" fill="none" xmlns="http://www.w3.org/2000/svg">
<g clip-path="url(#clip0_3_144)">
<path d="M0 104.4L48 95.7C96 87 192 69.5999 288 58C384 46.4 480 40.6 576 58C672 75.3999 768 116 864 110.2C960 104.4 1056 52.2 1152 43.5C1248 34.8 1344 69.5999 1440 89.8999C1536 110.2 1632 116 1728 98.6C1824 81.2 1920 40.6 2016 29C2112 17.4 2208 34.8 2304 34.8C2400 34.8 2496 17.4 2592 31.9C2688 46.4 2784 92.7999 2880 92.7999C2976 92.7999 3072 46.4 3168 49.2999C3264 52.2 3360 104.4 3456 127.6C3552 150.8 3648 145 3744 142.1C3840 139.2 3936 139.2 4032 116C4128 92.7999 4224 46.4 4320 34.8C4416 23.2 4512 46.4 4608 63.7999C4704 81.2 4800 92.7999 4896 92.7999C4992 92.7999 5088 81.2 5184 78.2999C5280 75.3999 5376 81.2 5472 89.8999C5568 98.6 5664 110.2 5760 104.4C5856 98.6 5952 75.3999 6048 75.3999C6144 75.3999 6240 98.6 6336 92.7999C6432 87 6528 52.2 6624 58C6720 63.7999 6816 110.2 6864 133.4L6912 156.6V174H6864C6816 174 6720 174 6624 174C6528 174 6432 174 6336 174C6240 174 6144 174 6048 174C5952 174 5856 174 5760 174C5664 174 5568 174 5472 174C5376 174 5280 174 5184 174C5088 174 4992 174 4896 174C4800 174 4704 174 4608 174C4512 174 4416 174 4320 174C4224 174 4128 174 4032 174C3936 174 3840 174 3744 174C3648 174 3552 174 3456 174C3360 174 3264 174 3168 174C3072 174 2976 174 2880 174C2784 174 2688 174 2592 174C2496 174 2400 174 2304 174C2208 174 2112 174 2016 174C1920 174 1824 174 1728 174C1632 174 1536 174 1440 174C1344 174 1248 174 1152 174C1056 174 960 174 864 174C768 174 672 174 576 174C480 174 384 174 288 174C192 174 96 174 48 174H0V104.4Z" fill="url(#paint0_linear_3_144)"/>
<path opacity="0.9" d="M0 17.4L48 29C96 40.6 192 63.8 288 72.5C384 81.2 480 75.4 576 63.8C672 52.2 768 34.8 864 40.6C960 46.4 1056 75.4 1152 92.8C1248 110.2 1344 116 1440 116C1536 116 1632 110.2 1728 92.8C1824 75.4 1920 46.4 2016 29C2112 11.6 2208 5.80002 2304 8.70002C2400 11.6 2496 23.2 2592 40.6C2688 58 2784 81.2 2880 78.3C2976 75.4 3072 46.4 3168 55.1C3264 63.8 3360 110.2 3456 133.4C3552 156.6 3648 156.6 3744 156.6C3840 156.6 3936 156.6 4032 145C4128 133.4 4224 110.2 4320 98.6C4416 87 4512 87 4608 95.7C4704 104.4 4800 121.8 4896 116C4992 110.2 5088 81.2 5184 84.1C5280 87 5376 121.8 5472 136.3C5568 150.8 5664 145 5760 118.9C5856 92.8 5952 46.4 6048 49.3C6144 52.2 6240 104.4 6336 130.5C6432 156.6 6528 156.6 6624 156.6C6720 156.6 6816 156.6 6864 156.6H6912V174H6864C6816 174 6720 174 6624 174C6528 174 6432 174 6336 174C6240 174 6144 174 6048 174C5952 174 5856 174 5760 174C5664 174 5568 174 5472 174C5376 174 5280 174 5184 174C5088 174 4992 174 4896 174C4800 174 4704 174 4608 174C4512 174 4416 174 4320 174C4224 174 4128 174 4032 174C3936 174 3840 174 3744 174C3648 174 3552 174 3456 174C3360 174 3264 174 3168 174C3072 174 2976 174 2880 174C2784 174 2688 174 2592 174C2496 174 2400 174 2304 174C2208 174 2112 174 2016 174C1920 174 1824 174 1728 174C1632 174 1536 174 1440 174C1344 174 1248 174 1152 174C1056 174 960 174 864 174C768 174 672 174 576 174C480 174 384 174 288 174C192 174 96 174 48 174H0V17.4Z" fill="url(#paint1_linear_3_144)"/>
<path opacity="0.8" d="M0 52.2L48 60.9C96 69.6 192 87 288 78.3C384 69.6 480 34.8 576 20.3C672 5.79998 768 11.6 864 23.2C960 34.8 1056 52.2 1152 58C1248 63.8 1344 58 1440 72.5C1536 87 1632 121.8 1728 136.3C1824 150.8 1920 145 2016 142.1C2112 139.2 2208 139.2 2304 121.8C2400 104.4 2496 69.6 2592 60.9C2688 52.2 2784 69.6 2880 63.8C2976 58 3072 29 3168 17.4C3264 5.79998 3360 11.6 3456 34.8C3552 58 3648 98.6 3744 107.3C3840 116 3936 92.8 4032 89.9C4128 87 4224 104.4 4320 110.2C4416 116 4512 110.2 4608 95.7C4704 81.2 4800 58 4896 49.3C4992 40.6 5088 46.4 5184 66.7C5280 87 5376 121.8 5472 116C5568 110.2 5664 63.8 5760 49.3C5856 34.8 5952 52.2 6048 52.2C6144 52.2 6240 34.8 6336 23.2C6432 11.6 6528 5.79998 6624 23.2C6720 40.6 6816 81.2 6864 101.5L6912 121.8V174H6864C6816 174 6720 174 6624 174C6528 174 6432 174 6336 174C6240 174 6144 174 6048 174C5952 174 5856 174 5760 174C5664 174 5568 174 5472 174C5376 174 5280 174 5184 174C5088 174 4992 174 4896 174C4800 174 4704 174 4608 174C4512 174 4416 174 4320 174C4224 174 4128 174 4032 174C3936 174 3840 174 3744 174C3648 174 3552 174 3456 174C3360 174 3264 174 3168 174C3072 174 2976 174 2880 174C2784 174 2688 174 2592 174C2496 174 2400 174 2304 174C2208 174 2112 174 2016 174C1920 174 1824 174 1728 174C1632 174 1536 174 1440 174C1344 174 1248 174 1152 174C1056 174 960 174 864 174C768 174 672 174 576 174C480 174 384 174 288 174C192 174 96 174 48 174H0V52.2Z" fill="url(#paint2_linear_3_144)"/>
</g>
<defs>
<linearGradient id="paint0_linear_3_144" x1="3456" y1="25.0125" x2="3456" y2="174" gradientUnits="userSpaceOnUse">
<stop stop-color="#46F4FF"/>
<stop offset="1" stop-color="#2562FF"/>
</linearGradient>
<linearGradient id="paint1_linear_3_144" x1="3456" y1="7.98792" x2="3456" y2="174" gradientUnits="userSpaceOnUse">
<stop stop-color="#46F4FF"/>
<stop offset="1" stop-color="#2562FF"/>
</linearGradient>
<linearGradient id="paint2_linear_3_144" x1="3456" y1="11.6" x2="3456" y2="174" gradientUnits="userSpaceOnUse">
<stop stop-color="#46F4FF"/>
<stop offset="1" stop-color="#2562FF"/>
</linearGradient>
<clipPath id="clip0_3_144">
<rect width="1440" height="174" fill="white"/>
</clipPath>
</defs>
</svg>
